<?xml version="1.0" encoding="iso-8859-1"?>
<!-- Generator: Adobe Illustrator 19.0.0, SVG Export Plug-In . SVG Version: 6.00 Build 0)  -->
<svg version="1.1" id="Capa_1" xmlns="http://www.w3.org/2000/svg" xmlns:xlink="http://www.w3.org/1999/xlink" x="0px" y="0px"
	 viewBox="0 0 539.077 539.077" style="enable-background:new 0 0 539.077 539.077;" xml:space="preserve">
<g>
	<g>
		<path d="M370.615,516.615H190.923c-6.208,0-11.231-5.023-11.231-11.231s5.023-11.231,11.231-11.231h78.615V307.881L93.136,131.479
			c-3.213-3.214-4.179-8.039-2.435-12.24c1.733-4.201,5.835-6.931,10.375-6.931h359.385c4.541,0,8.642,2.731,10.375,6.931
			c1.733,4.201,0.768,9.026-2.435,12.24L292,307.881v186.273h78.615c6.208,0,11.231,5.023,11.231,11.231
			S376.823,516.615,370.615,516.615z M128.189,134.769L280.769,287.35L433.35,134.769H128.189z"/>
		<path d="M460.462,179.692c-14.521,0-28.691-3.97-40.997-11.483l11.713-19.171c8.774,5.363,18.908,8.193,29.283,8.193
			c30.972,0,56.154-25.192,56.154-56.154s-25.181-56.154-56.154-56.154s-56.154,25.192-56.154,56.154
			c0,6.482,1.053,12.755,3.159,18.678l-21.189,7.48c-2.939-8.324-4.431-17.12-4.431-26.158c0-43.344,35.272-78.615,78.615-78.615
			s78.615,35.272,78.615,78.615S503.805,179.692,460.462,179.692z M160.006,130.931L84.746,44.923H0V22.462h89.846
			c3.235,0,6.317,1.393,8.456,3.839l78.615,89.846L160.006,130.931z"/>
	</g>
</g>
<g>
</g>
<g>
</g>
<g>
</g>
<g>
</g>
<g>
</g>
<g>
</g>
<g>
</g>
<g>
</g>
<g>
</g>
<g>
</g>
<g>
</g>
<g>
</g>
<g>
</g>
<g>
</g>
<g>
</g>
</svg>
