<?xml version="1.0" encoding="iso-8859-1"?>
<!-- Generator: Adobe Illustrator 19.0.0, SVG Export Plug-In . SVG Version: 6.00 Build 0)  -->
<svg version="1.1" id="Layer_1" xmlns="http://www.w3.org/2000/svg" xmlns:xlink="http://www.w3.org/1999/xlink" x="0px" y="0px"
	 viewBox="0 0 512 512" style="enable-background:new 0 0 512 512;" xml:space="preserve">
<g transform="translate(1 1)">
	<g>
		<g>
			<path d="M497.347,391.533h-3.413V101.4c0-18.773-15.36-34.133-34.133-34.133H50.2c-18.773,0-34.133,15.36-34.133,34.133v290.133
				h-3.413C4.973,391.533-1,397.507-1,405.187v23.893c0,7.68,5.973,13.653,13.653,13.653h484.693c7.68,0,13.653-5.973,13.653-13.653
				v-23.893C511,397.507,505.027,391.533,497.347,391.533z M33.133,101.4c0-9.387,7.68-17.067,17.067-17.067h409.6
				c9.387,0,17.067,7.68,17.067,17.067v290.133H299.373l-1.707,5.973c-0.107,0.107-0.227,0.227-0.358,0.355
				c-0.922,0.898-2.415,2.205-3.908,2.205h-68.267c-1.28,0-2.133-0.213-2.773-0.64c-0.64-0.427-1.067-1.067-1.493-1.92l-1.707-5.973
				H33.133V101.4z M493.933,425.667H16.067V408.6h192c4.267,5.12,10.24,8.533,17.067,8.533H293.4c6.827,0,12.8-3.413,17.067-8.533
				h183.467V425.667z"/>
			<path d="M459.8,365.933v-256c0-5.12-3.413-8.533-8.533-8.533H58.733c-5.12,0-8.533,3.413-8.533,8.533v256
				c0,5.12,3.413,8.533,8.533,8.533h392.533C456.387,374.467,459.8,371.053,459.8,365.933z M442.733,357.4H67.267V118.467h375.467
				V357.4z"/>
			<path d="M155.16,243.907l51.2,51.2c1.707,1.707,3.413,2.56,5.973,2.56c2.56,0,4.267-0.853,5.973-2.56
				c3.413-3.413,3.413-8.533,0-11.947l-45.227-45.227l44.373-46.08c3.413-3.413,3.413-8.533,0-11.947s-8.533-3.413-11.947,0
				l-51.2,51.2c-2.56,2.56-3.413,5.973-1.707,9.387C153.453,242.2,154.307,243.053,155.16,243.907z"/>
			<path d="M291.693,295.107c1.707,1.707,3.413,2.56,5.973,2.56s4.267-0.853,5.973-2.56l51.2-51.2c3.413-3.413,3.413-8.533,0-11.947
				l-51.2-51.2c-3.413-3.413-8.533-3.413-11.947,0c-3.413,3.413-3.413,8.533,0,11.947l45.227,45.227l-45.227,45.227
				C288.28,286.573,288.28,291.693,291.693,295.107z"/>
			<path d="M244.76,297.667c0.853,0,0.853,0,1.707,0c4.267,0,7.68-2.56,8.533-6.827l17.067-102.4c0.853-5.12-2.56-9.387-6.827-10.24
				c-5.12-0.853-9.387,2.56-10.24,6.827l-17.067,102.4C237.08,292.547,240.493,296.813,244.76,297.667z"/>
		</g>
	</g>
</g>
<g>
</g>
<g>
</g>
<g>
</g>
<g>
</g>
<g>
</g>
<g>
</g>
<g>
</g>
<g>
</g>
<g>
</g>
<g>
</g>
<g>
</g>
<g>
</g>
<g>
</g>
<g>
</g>
<g>
</g>
</svg>
