<?xml version="1.0" encoding="iso-8859-1"?>
<!-- Generator: Adobe Illustrator 19.0.0, SVG Export Plug-In . SVG Version: 6.00 Build 0)  -->
<svg version="1.1" id="Layer_1" xmlns="http://www.w3.org/2000/svg" xmlns:xlink="http://www.w3.org/1999/xlink" x="0px" y="0px"
	 viewBox="0 0 512 512" style="enable-background:new 0 0 512 512;" xml:space="preserve">
<g>
	<g>
		<path d="M483.681,39.419H28.319C12.704,39.419,0,52.123,0,67.738v298.655c0,15.615,12.704,28.319,28.319,28.319h171.786v1.735
			c0,29.37-23.894,53.264-53.265,53.264c-6.255,0-11.327,5.071-11.327,11.327s5.072,11.327,11.327,11.327
			c0.28,0,0.556-0.018,0.836-0.021c0.745,0.154,1.518,0.237,2.31,0.237h212.029c0.792,0,1.563-0.083,2.309-0.237
			c0.28,0.003,0.555,0.021,0.836,0.021c6.256,0,11.327-5.071,11.327-11.327s-5.071-11.327-11.327-11.327
			c-29.37,0-53.263-23.894-53.263-53.264v-1.735h171.785c15.615,0,28.319-12.704,28.319-28.319V67.738
			C512,52.123,499.296,39.419,483.681,39.419z M200.669,449.927c13.642-13.729,22.086-32.626,22.091-53.462
			c0-0.003,0.001-0.006,0.001-0.009v-1.744h66.481v1.744h0c0,0.003,0.001,0.006,0.001,0.009
			c0.005,20.836,8.449,39.733,22.091,53.462H200.669z M489.345,366.393c0,3.122-2.541,5.664-5.664,5.664H302.879
			c-0.746-0.155-1.519-0.238-2.311-0.238c-0.792,0-1.564,0.083-2.311,0.238h-84.515c-0.746-0.155-1.519-0.238-2.311-0.238
			c-0.792,0-1.564,0.083-2.311,0.238H28.319c-3.123,0-5.664-2.541-5.664-5.664v-64.717h466.69V366.393z M489.345,279.02H22.655
			V67.738c0-3.123,2.541-5.664,5.664-5.664h455.363c3.123,0,5.664,2.541,5.664,5.664V279.02z"/>
	</g>
</g>
<g>
	<g>
		<path d="M309.857,167.103c-0.22-4.403-2.973-8.278-7.06-9.933l-91.718-37.163c-0.002-0.001-0.003-0.001-0.006-0.002l-0.16-0.065
			c-0.095-0.039-0.191-0.065-0.287-0.1c-0.234-0.088-0.469-0.174-0.709-0.247c-0.145-0.043-0.29-0.077-0.435-0.114
			c-0.212-0.054-0.424-0.11-0.639-0.152c-0.162-0.032-0.323-0.054-0.485-0.079c-0.203-0.031-0.404-0.061-0.609-0.082
			c-0.167-0.016-0.332-0.023-0.497-0.032c-0.203-0.01-0.406-0.022-0.609-0.02c-0.164,0-0.327,0.009-0.49,0.017
			c-0.205,0.009-0.41,0.019-0.615,0.04c-0.164,0.017-0.326,0.042-0.489,0.066c-0.201,0.029-0.401,0.058-0.602,0.097
			c-0.174,0.035-0.345,0.08-0.518,0.123c-0.185,0.046-0.368,0.089-0.552,0.145c-0.196,0.059-0.387,0.131-0.58,0.202
			c-0.13,0.048-0.262,0.084-0.392,0.136c-0.028,0.011-0.053,0.026-0.082,0.037c-0.196,0.082-0.386,0.177-0.578,0.268
			c-0.148,0.071-0.301,0.137-0.446,0.214c-0.155,0.083-0.302,0.18-0.454,0.27c-0.169,0.101-0.342,0.196-0.505,0.305
			c-0.088,0.059-0.17,0.128-0.257,0.189c-0.514,0.367-1,0.763-1.439,1.203c-0.164,0.163-0.314,0.342-0.468,0.517
			c-0.087,0.099-0.182,0.191-0.266,0.293c-0.144,0.176-0.274,0.364-0.409,0.548c-0.082,0.113-0.171,0.221-0.248,0.336
			c-0.103,0.154-0.193,0.318-0.289,0.478c-0.096,0.16-0.197,0.316-0.285,0.48c-0.076,0.142-0.141,0.293-0.212,0.439
			c-0.093,0.193-0.189,0.384-0.271,0.582c-0.011,0.028-0.027,0.054-0.039,0.083c-0.052,0.128-0.088,0.258-0.135,0.387
			c-0.071,0.194-0.144,0.387-0.204,0.586c-0.053,0.177-0.095,0.355-0.139,0.531c-0.045,0.18-0.093,0.36-0.129,0.543
			c-0.037,0.188-0.063,0.376-0.092,0.565c-0.026,0.177-0.053,0.352-0.071,0.531c-0.018,0.189-0.027,0.376-0.036,0.564
			c-0.009,0.181-0.018,0.362-0.018,0.546c0.003,0.183,0.012,0.365,0.021,0.547c0.009,0.188,0.018,0.376,0.036,0.564
			c0.018,0.178,0.045,0.355,0.071,0.53c0.028,0.189,0.054,0.377,0.092,0.566c0.036,0.182,0.084,0.361,0.129,0.541
			c0.045,0.178,0.086,0.356,0.141,0.532c0.06,0.197,0.133,0.39,0.203,0.583c0.048,0.13,0.084,0.26,0.136,0.39l37.231,91.882
			c1.655,4.085,5.53,6.84,9.933,7.059c0.19,0.01,0.378,0.015,0.568,0.015c4.187,0,8.054-2.316,10.02-6.048l11.692-22.197
			l18.263,18.262c2.212,2.212,5.111,3.318,8.01,3.318c2.9,0,5.797-1.107,8.01-3.318c4.423-4.423,4.423-11.596,0-16.019
			l-18.262-18.262l22.197-11.693C307.723,175.636,310.077,171.506,309.857,167.103z M257.521,176.475
			c-0.035,0.018-0.069,0.037-0.103,0.056c-0.142,0.076-0.276,0.163-0.415,0.245c-0.173,0.102-0.349,0.197-0.517,0.309
			c-0.007,0.005-0.014,0.008-0.02,0.012c-0.311,0.207-0.614,0.43-0.905,0.668c-0.125,0.102-0.237,0.215-0.356,0.322
			c-0.156,0.139-0.317,0.274-0.467,0.423c-0.539,0.539-1.017,1.127-1.432,1.752c-0.109,0.164-0.203,0.335-0.302,0.504
			c-0.085,0.143-0.176,0.282-0.254,0.429c-0.02,0.039-0.041,0.076-0.061,0.116l-7.458,14.158l-18.024-44.483l44.483,18.024
			L257.521,176.475z"/>
	</g>
</g>
<g>
	<g>
		<circle cx="257.212" cy="336.425" r="15.292"/>
	</g>
</g>
<g>
</g>
<g>
</g>
<g>
</g>
<g>
</g>
<g>
</g>
<g>
</g>
<g>
</g>
<g>
</g>
<g>
</g>
<g>
</g>
<g>
</g>
<g>
</g>
<g>
</g>
<g>
</g>
<g>
</g>
</svg>
