<?xml version="1.0" encoding="iso-8859-1"?>
<!-- Generator: Adobe Illustrator 19.0.0, SVG Export Plug-In . SVG Version: 6.00 Build 0)  -->
<svg version="1.1" id="Capa_1" xmlns="http://www.w3.org/2000/svg" xmlns:xlink="http://www.w3.org/1999/xlink" x="0px" y="0px"
	 viewBox="0 0 538.726 538.726" style="enable-background:new 0 0 538.726 538.726;" xml:space="preserve">
<g>
	<g>
		<path d="M241.191,392.748c-105.277,0-190.923-85.657-190.923-190.934S135.914,10.891,241.191,10.891
			s190.934,85.646,190.934,190.923S346.469,392.748,241.191,392.748z M241.191,33.352c-92.895,0-168.462,75.566-168.462,168.462
			c0,92.906,75.566,168.472,168.462,168.472c92.906,0,168.473-75.566,168.473-168.472
			C409.664,108.919,334.097,33.352,241.191,33.352z"/>
		<path d="M252.422,493.803c-6.208,0-11.231-5.023-11.231-11.231c0,6.208-5.023,11.231-11.231,11.231s-11.231-5.023-11.231-11.231
			V448.88c0-6.208,5.023-11.231,11.231-11.231s11.231,5.023,11.231,11.231c0-6.208,5.023-11.231,11.231-11.231
			s11.231,5.023,11.231,11.231v33.692C263.653,488.78,258.63,493.803,252.422,493.803z"/>
		<path d="M375.533,538.726H106.828c-4.837,0-9.125-3.093-10.66-7.677c-1.524-4.584,0.055-9.651,3.926-12.547
			c41.194-30.841,89.978-47.16,141.098-47.16c51.098,0,99.881,16.32,141.076,47.16c3.861,2.895,5.44,7.962,3.926,12.547
			C384.658,535.633,380.358,538.726,375.533,538.726z M146.168,516.264h190.013C277.439,486.696,204.943,486.696,146.168,516.264z
			 M241.202,460.001c-62.658,0-125.304-22.593-174.538-67.779l-8.116,8.116c-4.387,4.387-11.494,4.387-15.881,0
			s-4.387-11.494,0-15.881l15.223-15.223c0.197-0.219,0.417-0.461,0.636-0.68c0.219-0.219,0.461-0.439,0.691-0.636l15.212-15.201
			c4.387-4.387,11.494-4.387,15.881,0c4.387,4.387,4.387,11.494,0,15.881l-7.743,7.743c92.445,84.121,236.087,81.533,325.385-7.743
			c89.276-89.298,91.864-232.973,7.743-325.418l-7.743,7.754c-4.387,4.387-11.494,4.387-15.881,0s-4.387-11.494,0-15.881
			L423.834,3.29c4.387-4.387,11.494-4.387,15.881,0s4.387,11.494,0,15.881l-8.116,8.116
			c92.851,101.209,90.263,259.141-7.765,357.191C373.493,434.819,307.336,459.979,241.202,460.001z"/>
	</g>
</g>
<g>
</g>
<g>
</g>
<g>
</g>
<g>
</g>
<g>
</g>
<g>
</g>
<g>
</g>
<g>
</g>
<g>
</g>
<g>
</g>
<g>
</g>
<g>
</g>
<g>
</g>
<g>
</g>
<g>
</g>
</svg>
