<?xml version="1.0" encoding="iso-8859-1"?>
<!-- Generator: Adobe Illustrator 19.0.0, SVG Export Plug-In . SVG Version: 6.00 Build 0)  -->
<svg version="1.1" id="Layer_1" xmlns="http://www.w3.org/2000/svg" xmlns:xlink="http://www.w3.org/1999/xlink" x="0px" y="0px"
	 viewBox="0 0 512 512" style="enable-background:new 0 0 512 512;" xml:space="preserve">
<g>
	<g>
		<path d="M437.02,74.982C388.667,26.628,324.381,0,256,0S123.333,26.628,74.982,74.98C26.628,123.333,0,187.619,0,256
			c0,68.378,26.626,132.662,74.974,181.012c0.002,0.002,0.004,0.005,0.006,0.007C123.332,485.372,187.619,512,256,512
			s132.668-26.628,181.02-74.98c0.002-0.002,0.004-0.005,0.006-0.007C485.374,388.662,512,324.378,512,256
			C512,187.619,485.372,123.333,437.02,74.982z M256,20.398c59.521,0,115.67,21.921,159.231,61.947l-72.236,72.236
			C318.788,133.752,288.266,122.39,256,122.39s-62.788,11.362-86.995,32.191L96.769,82.345C140.33,42.32,196.479,20.398,256,20.398z
			 M369.211,256c0,30.238-11.774,58.666-33.155,80.048c-0.001,0.001-0.003,0.002-0.004,0.003
			c-21.384,21.384-49.813,33.16-80.053,33.16s-58.669-11.776-80.052-33.16c-0.001-0.001-0.003-0.002-0.004-0.004
			c-21.381-21.382-33.155-49.81-33.155-80.047c0-30.24,11.776-58.669,33.159-80.052c21.384-21.383,49.813-33.159,80.052-33.159
			s58.669,11.776,80.053,33.159C357.435,197.331,369.211,225.76,369.211,256z M20.398,256c0-59.521,21.921-115.67,61.947-159.231
			l72.236,72.236C133.752,193.212,122.39,223.734,122.39,256s11.362,62.788,32.191,86.994l-72.236,72.237
			C42.32,371.67,20.398,315.521,20.398,256z M256,491.602c-59.521,0-115.67-21.921-159.231-61.947l72.236-72.237
			c24.207,20.83,54.729,32.192,86.995,32.192s62.788-11.362,86.995-32.192l72.236,72.237C371.67,469.68,315.521,491.602,256,491.602
			z M429.655,415.231l-72.236-72.237c20.829-24.206,32.191-54.728,32.191-86.994s-11.362-62.788-32.191-86.995l72.236-72.236
			c40.026,43.561,61.947,99.71,61.947,159.231S469.68,371.67,429.655,415.231z"/>
	</g>
</g>
<g>
	<g>
		<path d="M90.448,129.544c-4.637-3.202-10.988-2.038-14.188,2.599c-4.908,7.11-9.434,14.581-13.455,22.208
			c-2.626,4.982-0.717,11.152,4.266,13.778c1.517,0.8,3.143,1.179,4.748,1.179c3.663,0,7.204-1.98,9.03-5.445
			c3.644-6.912,7.748-13.685,12.197-20.13C96.247,139.097,95.083,132.745,90.448,129.544z"/>
	</g>
</g>
<g>
	<g>
		<path d="M60.816,183.048c-5.368-1.709-11.104,1.255-12.814,6.621C41.19,211.045,37.737,233.362,37.737,256
			c0,18.099,2.222,36.096,6.605,53.489c1.166,4.626,5.32,7.71,9.882,7.71c0.825,0,1.664-0.101,2.5-0.312
			c5.462-1.376,8.774-6.92,7.397-12.382C60.15,288.74,58.135,272.421,58.135,256c0-20.534,3.129-40.767,9.302-60.138
			C69.148,190.495,66.184,184.758,60.816,183.048z"/>
	</g>
</g>
<g>
</g>
<g>
</g>
<g>
</g>
<g>
</g>
<g>
</g>
<g>
</g>
<g>
</g>
<g>
</g>
<g>
</g>
<g>
</g>
<g>
</g>
<g>
</g>
<g>
</g>
<g>
</g>
<g>
</g>
</svg>
