<?xml version="1.0" encoding="iso-8859-1"?>
<!-- Generator: Adobe Illustrator 19.1.0, SVG Export Plug-In . SVG Version: 6.00 Build 0)  -->
<svg version="1.1" id="Capa_1" xmlns="http://www.w3.org/2000/svg" xmlns:xlink="http://www.w3.org/1999/xlink" x="0px" y="0px"
	 viewBox="0 0 429.795 429.795" style="enable-background:new 0 0 429.795 429.795;" xml:space="preserve">
<g>
	<g>
	</g>
	<g>
	</g>
	<g>
	</g>
	<g>
	</g>
	<g>
	</g>
	<g>
	</g>
	<g>
	</g>
	<g>
	</g>
	<g>
	</g>
	<g>
	</g>
	<g>
	</g>
	<g>
	</g>
	<g>
	</g>
	<g>
	</g>
	<g>
	</g>
</g>
<g>
	<path style="fill:#231F20;" d="M429.686,218.725c-0.004-0.205,0.107-0.41,0.09-0.616c-0.012-0.147,0.032-0.292,0.014-0.437
		c-0.023-0.184-0.02-0.369-0.054-0.553c-0.031-0.172-0.052-0.342-0.092-0.511c-0.036-0.151-0.066-0.302-0.109-0.452
		c-0.056-0.198-0.115-0.392-0.182-0.585c-0.026-0.074-0.041-0.149-0.069-0.222l-67.3-180.345c-1.5-4.023-5.346-6.605-9.651-6.605
		H70.656c-4.429,0-8.382,2.759-9.776,6.941L0.639,215.423c-0.383,1.029-0.606,2.113-0.639,3.266
		c-0.001,0.037,0.231,0.064,0.23,0.102c-0.001,0.062,0.226,0.112,0.226,0.175v171.763c0,5.682,4.135,10.669,9.834,10.669h409.346
		c5.7,0,10.82-4.987,9.82-10.669V218.965C429.456,218.884,429.688,218.806,429.686,218.725z M78.067,48.397h267.103l59.626,160
		H271.482c-5.7,0-10.305,4.755-10.305,10.436c0,25.48-20.734,46.298-46.214,46.298s-46.214-20.85-46.214-46.33
		c0-5.7-4.606-10.404-10.305-10.404H24.605L78.067,48.397z M409.456,380.397h-389v-151h128.477c4.958,32,32.698,56.519,66.03,56.519
		s61.072-24.519,66.03-56.519h128.463V380.397z"/>
	<path style="fill:#231F20;" d="M75.279,182.397h279.385c5.682,0,10.305-4.818,10.305-10.5c0-5.7-4.606-10.5-10.305-10.5H75.279
		c-5.7,0-10.305,4.818-10.305,10.5C64.974,177.597,69.58,182.397,75.279,182.397z"/>
	<path style="fill:#231F20;" d="M95.819,134.397h238.305c5.7,0,10.305-4.818,10.305-10.5c0-5.7-4.606-10.5-10.305-10.5H95.819
		c-5.7,0-10.305,4.818-10.305,10.5C85.514,129.597,90.119,134.397,95.819,134.397z"/>
	<path style="fill:#231F20;" d="M112.406,90.397h205.132c5.7,0,10.305-4.818,10.305-10.5c0-5.7-4.606-10.5-10.305-10.5H112.406
		c-5.7,0-10.305,4.818-10.305,10.5C102.101,85.597,106.706,90.397,112.406,90.397z"/>
	<path style="fill:#231F20;" d="M270.247,334.397H159.679c-5.7,0-10.305,4.318-10.305,10c0,5.7,4.606,10,10.305,10h110.568
		c5.7,0,10.305-4.3,10.305-10C280.552,338.698,275.946,334.397,270.247,334.397z"/>
</g>
<g>
</g>
<g>
</g>
<g>
</g>
<g>
</g>
<g>
</g>
<g>
</g>
<g>
</g>
<g>
</g>
<g>
</g>
<g>
</g>
<g>
</g>
<g>
</g>
<g>
</g>
<g>
</g>
<g>
</g>
</svg>
