<?xml version="1.0" encoding="iso-8859-1"?>
<!-- Generator: Adobe Illustrator 18.1.1, SVG Export Plug-In . SVG Version: 6.00 Build 0)  -->
<svg version="1.1" id="Capa_1" xmlns="http://www.w3.org/2000/svg" xmlns:xlink="http://www.w3.org/1999/xlink" x="0px" y="0px"
	 viewBox="0 0 80 80" style="enable-background:new 0 0 80 80;" xml:space="preserve">
<g id="_x37_7_Essential_Icons_21_">
	<path id="Email" d="M78,13H2c-1.1,0-2,0.9-2,2v50c0,1.1,0.9,2,2,2h76c1.1,0,2-0.9,2-2V15C80,13.9,79.1,13,78,13z M73.2,17L40,50.2
		L6.8,17H73.2z M4,19.8L24.2,40L4,60.2V19.8z M6.9,63L27,42.9l11.6,11.6c0.8,0.8,2,0.8,2.8,0L53,42.9L73.1,63H6.9z M76,60.2L55.8,40
		L76,19.8V60.2z"/>
</g>
<g>
</g>
<g>
</g>
<g>
</g>
<g>
</g>
<g>
</g>
<g>
</g>
<g>
</g>
<g>
</g>
<g>
</g>
<g>
</g>
<g>
</g>
<g>
</g>
<g>
</g>
<g>
</g>
<g>
</g>
</svg>
