<?xml version="1.0" encoding="iso-8859-1"?>
<!-- Generator: Adobe Illustrator 19.0.0, SVG Export Plug-In . SVG Version: 6.00 Build 0)  -->
<svg version="1.1" id="Layer_1" xmlns="http://www.w3.org/2000/svg" xmlns:xlink="http://www.w3.org/1999/xlink" x="0px" y="0px"
	 viewBox="0 0 512 512" style="enable-background:new 0 0 512 512;" xml:space="preserve">
<g>
	<g>
		<path d="M488.406,26.635H23.594C10.584,26.635,0,37.22,0,50.23v49.689c0,13.01,10.584,23.594,23.594,23.594h3.94v338.753
			c0,12.741,10.358,23.099,23.111,23.099h410.709c12.753,0,23.111-10.358,23.111-23.099v-304.05c0-6.512-5.273-11.797-11.797-11.797
			c-6.512,0-11.797,5.285-11.797,11.797V461.77H51.129V123.513h437.276c13.01,0,23.594-10.584,23.594-23.594V50.23
			C512,37.219,501.416,26.635,488.406,26.635z M488.406,99.918H23.594V50.23h464.811l0.015,49.688
			C488.421,99.917,488.416,99.918,488.406,99.918z"/>
	</g>
</g>
<g>
	<g>
		<path d="M327.26,149.568H184.74c-18.017,0-32.674,14.658-32.674,32.674s14.657,32.674,32.674,32.674h142.52
			c18.017,0,32.674-14.658,32.674-32.674S345.277,149.568,327.26,149.568z M327.26,193.681H184.74
			c-6.307,0-11.439-5.131-11.439-11.439s5.132-11.439,11.439-11.439h142.52c6.308,0,11.439,5.132,11.439,11.439
			C338.699,188.549,333.567,193.681,327.26,193.681z"/>
	</g>
</g>
<g>
	<g>
		<path d="M298.234,328.312v-26.041c0-0.034-0.005-0.068-0.005-0.103c-0.058-23.238-18.978-42.124-42.229-42.124
			s-42.17,18.887-42.229,42.124c0,0.035-0.005,0.068-0.005,0.104v26.041c-13.575,4.54-23.389,17.366-23.389,32.447v40.75
			c0,18.864,15.347,34.212,34.212,34.212h62.823c18.865,0,34.212-15.348,34.212-34.212v-40.751
			C321.623,345.677,311.809,332.851,298.234,328.312z M235.001,302.324c0-0.017,0.002-0.033,0.002-0.05
			c0-11.577,9.419-20.997,20.997-20.997s20.997,9.419,20.997,20.997c0,0.017,0.002,0.033,0.002,0.05v24.223h-41.998V302.324z
			 M300.388,401.509c0,7.155-5.822,12.977-12.977,12.977h-62.823c-7.155,0-12.977-5.822-12.977-12.977v-40.75
			c0-7.155,5.822-12.977,12.977-12.977h62.823c7.155,0,12.977,5.822,12.977,12.977V401.509z"/>
	</g>
</g>
<g>
	<g>
		<path d="M256,363.437c-5.864,0-10.617,4.753-10.617,10.617v14.16c0,5.864,4.753,10.617,10.617,10.617s10.617-4.753,10.617-10.617
			v-14.16C266.617,368.19,261.864,363.437,256,363.437z"/>
	</g>
</g>
<g>
</g>
<g>
</g>
<g>
</g>
<g>
</g>
<g>
</g>
<g>
</g>
<g>
</g>
<g>
</g>
<g>
</g>
<g>
</g>
<g>
</g>
<g>
</g>
<g>
</g>
<g>
</g>
<g>
</g>
</svg>
