<?xml version="1.0" encoding="iso-8859-1"?>
<!-- Generator: Adobe Illustrator 19.0.0, SVG Export Plug-In . SVG Version: 6.00 Build 0)  -->
<svg version="1.1" id="Capa_1" xmlns="http://www.w3.org/2000/svg" xmlns:xlink="http://www.w3.org/1999/xlink" x="0px" y="0px"
	 viewBox="0 0 539.077 539.077" style="enable-background:new 0 0 539.077 539.077;" xml:space="preserve">
<g>
	<g>
		<path d="M168.462,539.077c-30.961,0-56.154-25.181-56.154-56.154V179.692c0-1.568,0.329-3.126,0.965-4.562l44.923-101.077
			c3.619-8.116,16.912-8.116,20.531,0L223.65,175.13c0.636,1.437,0.965,2.994,0.965,4.562v303.231
			C224.615,513.895,199.423,539.077,168.462,539.077z M134.769,471.692v11.231c0,18.579,15.113,33.692,33.692,33.692
			s33.692-15.113,33.692-33.692v-11.231H134.769z M134.769,449.231h67.385v-22.462h-67.385V449.231z M134.769,404.308h67.385
			V182.072l-33.692-75.808l-33.692,75.808V404.308z"/>
		<path d="M415.538,539.077H280.769c-6.208,0-11.231-5.023-11.231-11.231V11.231C269.538,5.023,274.562,0,280.769,0h134.769
			c6.208,0,11.231,5.023,11.231,11.231v516.615C426.769,534.054,421.746,539.077,415.538,539.077z M292,516.615h112.308V22.462H292
			v44.923h33.692c6.208,0,11.231,5.023,11.231,11.231c0,6.208-5.023,11.231-11.231,11.231H292v67.385h33.692
			c6.208,0,11.231,5.023,11.231,11.231c0,6.208-5.023,11.231-11.231,11.231H292v67.385h33.692c6.208,0,11.231,5.023,11.231,11.231
			c0,6.208-5.023,11.231-11.231,11.231H292v67.385h33.692c6.208,0,11.231,5.023,11.231,11.231c0,6.208-5.023,11.231-11.231,11.231
			H292v67.385h33.692c6.208,0,11.231,5.023,11.231,11.231s-5.023,11.231-11.231,11.231H292V516.615z M168.462,426.769
			c-6.208,0-11.231-5.023-11.231-11.231V190.923h-33.692c-6.208,0-11.231-5.023-11.231-11.231s5.023-11.231,11.231-11.231h89.846
			c6.208,0,11.231,5.023,11.231,11.231s-5.023,11.231-11.231,11.231h-33.692v224.615
			C179.692,421.746,174.669,426.769,168.462,426.769z"/>
	</g>
</g>
<g>
</g>
<g>
</g>
<g>
</g>
<g>
</g>
<g>
</g>
<g>
</g>
<g>
</g>
<g>
</g>
<g>
</g>
<g>
</g>
<g>
</g>
<g>
</g>
<g>
</g>
<g>
</g>
<g>
</g>
</svg>
