<?xml version="1.0" encoding="iso-8859-1"?>
<!-- Generator: Adobe Illustrator 19.0.0, SVG Export Plug-In . SVG Version: 6.00 Build 0)  -->
<svg version="1.1" id="Layer_1" xmlns="http://www.w3.org/2000/svg" xmlns:xlink="http://www.w3.org/1999/xlink" x="0px" y="0px"
	 viewBox="0 0 511.147 511.147" style="enable-background:new 0 0 511.147 511.147;" xml:space="preserve">
<g transform="translate(1 1)">
	<g>
		<g>
			<path d="M288.28,41.667c5.12,0,8.533-3.413,8.533-8.533c0-5.12-3.413-8.533-8.533-8.533s-8.533,3.413-8.533,8.533
				C279.747,38.253,283.16,41.667,288.28,41.667z"/>
			<path d="M288.28,92.867c5.12,0,8.533-3.413,8.533-8.533c0-5.12-3.413-8.533-8.533-8.533s-8.533,3.413-8.533,8.533
				C279.747,89.453,283.16,92.867,288.28,92.867z"/>
			<path d="M339.48,75.8c-5.12,0-8.533,3.413-8.533,8.533c0,5.12,3.413,8.533,8.533,8.533c5.12,0,8.533-3.413,8.533-8.533
				C348.013,79.213,344.6,75.8,339.48,75.8z"/>
			<path d="M313.88,50.2c-5.12,0-8.533,3.413-8.533,8.533s3.413,8.533,8.533,8.533s8.533-3.413,8.533-8.533S319,50.2,313.88,50.2z"
				/>
			<path d="M288.28,144.067c5.12,0,8.533-3.413,8.533-8.533S293.4,127,288.28,127s-8.533,3.413-8.533,8.533
				S283.16,144.067,288.28,144.067z"/>
			<path d="M339.48,127c-5.12,0-8.533,3.413-8.533,8.533s3.413,8.533,8.533,8.533c5.12,0,8.533-3.413,8.533-8.533
				S344.6,127,339.48,127z"/>
			<path d="M313.88,101.4c-5.12,0-8.533,3.413-8.533,8.533s3.413,8.533,8.533,8.533s8.533-3.413,8.533-8.533S319,101.4,313.88,101.4
				z"/>
			<path d="M390.68,75.8c-5.12,0-8.533,3.413-8.533,8.533c0,5.12,3.413,8.533,8.533,8.533c5.12,0,8.533-3.413,8.533-8.533
				C399.213,79.213,395.8,75.8,390.68,75.8z"/>
			<path d="M390.68,127c-5.12,0-8.533,3.413-8.533,8.533s3.413,8.533,8.533,8.533c5.12,0,8.533-3.413,8.533-8.533
				S395.8,127,390.68,127z"/>
			<path d="M365.08,101.4c-5.12,0-8.533,3.413-8.533,8.533s3.413,8.533,8.533,8.533s8.533-3.413,8.533-8.533
				S370.2,101.4,365.08,101.4z"/>
			<path d="M365.08,152.6c-5.12,0-8.533,3.413-8.533,8.533s3.413,8.533,8.533,8.533s8.533-3.413,8.533-8.533
				S370.2,152.6,365.08,152.6z"/>
			<path d="M365.08,203.8c-5.12,0-8.533,3.413-8.533,8.533c0,5.12,3.413,8.533,8.533,8.533s8.533-3.413,8.533-8.533
				C373.613,207.213,370.2,203.8,365.08,203.8z"/>
			<path d="M339.48,178.2c-5.12,0-8.533,3.413-8.533,8.533s3.413,8.533,8.533,8.533c5.12,0,8.533-3.413,8.533-8.533
				S344.6,178.2,339.48,178.2z"/>
			<path d="M313.88,152.6c-5.12,0-8.533,3.413-8.533,8.533s3.413,8.533,8.533,8.533s8.533-3.413,8.533-8.533S319,152.6,313.88,152.6
				z"/>
			<path d="M288.28,195.267c5.12,0,8.533-3.413,8.533-8.533s-3.413-8.533-8.533-8.533s-8.533,3.413-8.533,8.533
				S283.16,195.267,288.28,195.267z"/>
			<path d="M416.28,152.6c-5.12,0-8.533,3.413-8.533,8.533s3.413,8.533,8.533,8.533s8.533-3.413,8.533-8.533
				S421.4,152.6,416.28,152.6z"/>
			<path d="M416.28,203.8c-5.12,0-8.533,3.413-8.533,8.533c0,5.12,3.413,8.533,8.533,8.533s8.533-3.413,8.533-8.533
				C424.813,207.213,421.4,203.8,416.28,203.8z"/>
			<path d="M390.68,178.2c-5.12,0-8.533,3.413-8.533,8.533s3.413,8.533,8.533,8.533c5.12,0,8.533-3.413,8.533-8.533
				S395.8,178.2,390.68,178.2z"/>
			<path d="M441.88,195.267c5.12,0,8.533-3.413,8.533-8.533S447,178.2,441.88,178.2s-8.533,3.413-8.533,8.533
				S436.76,195.267,441.88,195.267z"/>
			<path d="M416.28,101.4c-5.12,0-8.533,3.413-8.533,8.533s3.413,8.533,8.533,8.533s8.533-3.413,8.533-8.533
				S421.4,101.4,416.28,101.4z"/>
			<path d="M441.88,144.067c5.12,0,8.533-3.413,8.533-8.533S447,127,441.88,127s-8.533,3.413-8.533,8.533
				S436.76,144.067,441.88,144.067z"/>
			<path d="M390.68,229.4c-5.12,0-8.533,3.413-8.533,8.533s3.413,8.533,8.533,8.533c5.12,0,8.533-3.413,8.533-8.533
				S395.8,229.4,390.68,229.4z"/>
			<path d="M365.08,255c-5.12,0-8.533,3.413-8.533,8.533s3.413,8.533,8.533,8.533s8.533-3.413,8.533-8.533S370.2,255,365.08,255z"/>
			<path d="M365.08,306.2c-5.12,0-8.533,3.413-8.533,8.533s3.413,8.533,8.533,8.533s8.533-3.413,8.533-8.533
				S370.2,306.2,365.08,306.2z"/>
			<path d="M313.88,306.2c-5.12,0-8.533,3.413-8.533,8.533s3.413,8.533,8.533,8.533s8.533-3.413,8.533-8.533S319,306.2,313.88,306.2
				z"/>
			<path d="M416.28,255c-5.12,0-8.533,3.413-8.533,8.533s3.413,8.533,8.533,8.533s8.533-3.413,8.533-8.533S421.4,255,416.28,255z"/>
			<path d="M416.28,306.2c-5.12,0-8.533,3.413-8.533,8.533s3.413,8.533,8.533,8.533s8.533-3.413,8.533-8.533
				S421.4,306.2,416.28,306.2z"/>
			<path d="M467.48,323.267c5.12,0,8.533-3.413,8.533-8.533s-3.413-8.533-8.533-8.533s-8.533,3.413-8.533,8.533
				S462.36,323.267,467.48,323.267z"/>
			<path d="M467.48,272.067c5.12,0,8.533-3.413,8.533-8.533S472.6,255,467.48,255s-8.533,3.413-8.533,8.533
				S462.36,272.067,467.48,272.067z"/>
			<path d="M467.48,220.867c5.12,0,8.533-3.413,8.533-8.533c0-5.12-3.413-8.533-8.533-8.533s-8.533,3.413-8.533,8.533
				C458.947,217.453,462.36,220.867,467.48,220.867z"/>
			<path d="M390.68,280.6c-5.12,0-8.533,3.413-8.533,8.533s3.413,8.533,8.533,8.533c5.12,0,8.533-3.413,8.533-8.533
				S395.8,280.6,390.68,280.6z"/>
			<path d="M288.28,246.467c5.12,0,8.533-3.413,8.533-8.533s-3.413-8.533-8.533-8.533s-8.533,3.413-8.533,8.533
				S283.16,246.467,288.28,246.467z"/>
			<path d="M313.88,255c-5.12,0-8.533,3.413-8.533,8.533s3.413,8.533,8.533,8.533s8.533-3.413,8.533-8.533S319,255,313.88,255z"/>
			<path d="M313.88,203.8c-5.12,0-8.533,3.413-8.533,8.533c0,5.12,3.413,8.533,8.533,8.533s8.533-3.413,8.533-8.533
				C322.413,207.213,319,203.8,313.88,203.8z"/>
			<path d="M288.28,297.667c5.12,0,8.533-3.413,8.533-8.533s-3.413-8.533-8.533-8.533s-8.533,3.413-8.533,8.533
				S283.16,297.667,288.28,297.667z"/>
			<path d="M441.88,297.667c5.12,0,8.533-3.413,8.533-8.533S447,280.6,441.88,280.6s-8.533,3.413-8.533,8.533
				S436.76,297.667,441.88,297.667z"/>
			<path d="M441.88,246.467c5.12,0,8.533-3.413,8.533-8.533S447,229.4,441.88,229.4s-8.533,3.413-8.533,8.533
				S436.76,246.467,441.88,246.467z"/>
			<path d="M390.68,331.8c-5.12,0-8.533,3.413-8.533,8.533c0,5.12,3.413,8.533,8.533,8.533c5.12,0,8.533-3.413,8.533-8.533
				C399.213,335.213,395.8,331.8,390.68,331.8z"/>
			<path d="M365.08,357.4c-5.12,0-8.533,3.413-8.533,8.533s3.413,8.533,8.533,8.533s8.533-3.413,8.533-8.533
				S370.2,357.4,365.08,357.4z"/>
			<path d="M365.08,408.6c-5.12,0-8.533,3.413-8.533,8.533s3.413,8.533,8.533,8.533s8.533-3.413,8.533-8.533
				S370.2,408.6,365.08,408.6z"/>
			<path d="M416.28,357.4c-5.12,0-8.533,3.413-8.533,8.533s3.413,8.533,8.533,8.533s8.533-3.413,8.533-8.533
				S421.4,357.4,416.28,357.4z"/>
			<path d="M416.28,408.6c-5.12,0-8.533,3.413-8.533,8.533s3.413,8.533,8.533,8.533s8.533-3.413,8.533-8.533
				S421.4,408.6,416.28,408.6z"/>
			<path d="M390.68,383c-5.12,0-8.533,3.413-8.533,8.533c0,5.12,3.413,8.533,8.533,8.533c5.12,0,8.533-3.413,8.533-8.533
				C399.213,386.413,395.8,383,390.68,383z"/>
			<path d="M339.48,383c-5.12,0-8.533,3.413-8.533,8.533c0,5.12,3.413,8.533,8.533,8.533c5.12,0,8.533-3.413,8.533-8.533
				C348.013,386.413,344.6,383,339.48,383z"/>
			<path d="M339.48,331.8c-5.12,0-8.533,3.413-8.533,8.533c0,5.12,3.413,8.533,8.533,8.533c5.12,0,8.533-3.413,8.533-8.533
				C348.013,335.213,344.6,331.8,339.48,331.8z"/>
			<path d="M339.48,280.6c-5.12,0-8.533,3.413-8.533,8.533s3.413,8.533,8.533,8.533c5.12,0,8.533-3.413,8.533-8.533
				S344.6,280.6,339.48,280.6z"/>
			<path d="M313.88,459.8c-5.12,0-8.533,3.413-8.533,8.533s3.413,8.533,8.533,8.533s8.533-3.413,8.533-8.533S319,459.8,313.88,459.8
				z"/>
			<path d="M288.28,348.867c5.12,0,8.533-3.413,8.533-8.533c0-5.12-3.413-8.533-8.533-8.533s-8.533,3.413-8.533,8.533
				C279.747,345.453,283.16,348.867,288.28,348.867z"/>
			<path d="M313.88,408.6c-5.12,0-8.533,3.413-8.533,8.533s3.413,8.533,8.533,8.533s8.533-3.413,8.533-8.533S319,408.6,313.88,408.6
				z"/>
			<path d="M313.88,357.4c-5.12,0-8.533,3.413-8.533,8.533s3.413,8.533,8.533,8.533s8.533-3.413,8.533-8.533S319,357.4,313.88,357.4
				z"/>
			<path d="M288.28,451.267c5.12,0,8.533-3.413,8.533-8.533s-3.413-8.533-8.533-8.533s-8.533,3.413-8.533,8.533
				S283.16,451.267,288.28,451.267z"/>
			<path d="M288.28,400.067c5.12,0,8.533-3.413,8.533-8.533c0-5.12-3.413-8.533-8.533-8.533s-8.533,3.413-8.533,8.533
				C279.747,396.653,283.16,400.067,288.28,400.067z"/>
			<path d="M339.48,434.2c-5.12,0-8.533,3.413-8.533,8.533s3.413,8.533,8.533,8.533c5.12,0,8.533-3.413,8.533-8.533
				S344.6,434.2,339.48,434.2z"/>
			<path d="M339.48,229.4c-5.12,0-8.533,3.413-8.533,8.533s3.413,8.533,8.533,8.533c5.12,0,8.533-3.413,8.533-8.533
				S344.6,229.4,339.48,229.4z"/>
			<path d="M441.88,348.867c5.12,0,8.533-3.413,8.533-8.533c0-5.12-3.413-8.533-8.533-8.533s-8.533,3.413-8.533,8.533
				C433.347,345.453,436.76,348.867,441.88,348.867z"/>
			<path d="M365.08,50.2c-5.12,0-8.533,3.413-8.533,8.533s3.413,8.533,8.533,8.533s8.533-3.413,8.533-8.533S370.2,50.2,365.08,50.2z
				"/>
			<path d="M272.067-0.147c-2.56,0-5.12,0.853-6.827,2.56s-2.56,3.413-2.56,5.973v493.227c0,1.707,0.853,4.267,2.56,5.973
				s3.413,2.56,5.973,2.56C405.187,501.613,510.147,388.973,510.147,255S405.187,8.387,272.067-0.147z M399.012,444.769
				c0.128-0.644,0.202-1.321,0.202-2.036c0-5.12-3.413-8.533-8.533-8.533c-5.12,0-8.533,3.413-8.533,8.533
				c0,4.95,3.196,8.295,8.034,8.512c-31.963,22.353-69.624,37.203-110.434,41.834v-50.347v-51.2v-51.2v-51.2v-51.2v-51.2v-51.2
				v-51.2v-51.2v-15.36c18.006,1.916,35.393,5.852,51.956,11.546c-0.486,1.119-0.756,2.398-0.756,3.814
				c0,5.12,3.413,8.533,8.533,8.533c4.285,0,7.366-2.396,8.26-6.177c53.75,22.963,97.29,65.065,122.256,117.42
				c-0.782-0.2-1.621-0.31-2.516-0.31c-5.12,0-8.533,3.413-8.533,8.533s3.413,8.533,8.533,8.533c3.737,0,6.557-1.824,7.812-4.796
				c8.359,20.336,13.976,42.038,16.406,64.627c-4.34,0.564-7.152,3.794-7.152,8.436c0,5.062,3.34,8.45,8.364,8.526
				c0.101,2.837,0.169,5.681,0.169,8.54c0,8.676-0.486,17.248-1.403,25.7c-4.328,0.572-7.13,3.799-7.13,8.433
				c0,3.737,1.824,6.557,4.797,7.812c-3.819,21.303-10.485,41.679-19.61,60.705c-0.707-0.159-1.457-0.251-2.253-0.251
				c-5.12,0-8.533,3.413-8.533,8.533c0,2.876,1.077,5.213,2.929,6.71c-3.561,6.251-7.396,12.33-11.49,18.222
				c-0.287-4.744-3.613-7.865-8.505-7.865c-5.12,0-8.533,3.413-8.533,8.533c0,5.12,3.413,8.533,8.533,8.533
				c0.67,0,1.309-0.062,1.917-0.175C430.913,416.719,415.848,431.824,399.012,444.769z"/>
			<path d="M237.08,262.68H7.533c-1.707,0-4.267,0.853-5.973,2.56C-0.147,267.8-1,269.507-1,272.067
				c2.233,33.278,10.907,64.855,24.762,93.504c-0.004,0.122-0.015,0.239-0.015,0.363c0,3.355,1.472,5.968,3.923,7.378
				c40.369,76.72,118.568,130.739,209.411,136.836c2.56,0,4.267-0.853,5.973-3.413c1.707-1.707,2.56-3.413,2.56-5.973V271.213
				C245.613,266.093,242.2,262.68,237.08,262.68z M65.084,400.157c-6.291-8.165-12.063-16.746-17.274-25.69h180.737v25.6H66.413
				C65.954,400.067,65.514,400.104,65.084,400.157z M28.297,331.8h200.249v25.6H38.77C34.803,349.115,31.3,340.572,28.297,331.8z
				 M228.547,280.6v34.133h-204.8c-0.195,0-0.382,0.014-0.572,0.024c-2.887-11.1-4.999-22.504-6.254-34.157H228.547z
				 M79.456,417.133h149.09v25.6H109.08c-0.569,0-1.114,0.049-1.639,0.131C97.447,435.034,88.089,426.425,79.456,417.133z
				 M132.068,459.8h96.479v32.427C193.618,488.465,160.893,477.084,132.068,459.8z"/>
			<path d="M236.227-1C109.933,7.533,7.533,109.933-1,237.08c0,2.56,0.853,5.12,2.56,6.827s3.413,2.56,5.973,2.56H237.08
				c5.12,0,8.533-3.413,8.533-8.533V7.533c0-2.56-0.853-4.267-2.56-5.973C240.493-0.147,238.787-1,236.227-1z M228.547,229.4H16.92
				C28.867,117.613,117.613,28.867,228.547,16.92V229.4z"/>
		</g>
	</g>
</g>
<g>
</g>
<g>
</g>
<g>
</g>
<g>
</g>
<g>
</g>
<g>
</g>
<g>
</g>
<g>
</g>
<g>
</g>
<g>
</g>
<g>
</g>
<g>
</g>
<g>
</g>
<g>
</g>
<g>
</g>
</svg>
