<?xml version="1.0" encoding="iso-8859-1"?>
<!-- Generator: Adobe Illustrator 19.0.0, SVG Export Plug-In . SVG Version: 6.00 Build 0)  -->
<svg version="1.1" id="Layer_1" xmlns="http://www.w3.org/2000/svg" xmlns:xlink="http://www.w3.org/1999/xlink" x="0px" y="0px"
	 viewBox="0 0 512 512" style="enable-background:new 0 0 512 512;" xml:space="preserve">
<g>
	<g>
		<path d="M410.685,138.558c-0.507-0.507-1.026-0.999-1.537-1.5l11.759-11.759l3.944,3.944c1.992,1.991,4.602,2.987,7.212,2.987
			s5.221-0.996,7.212-2.987c3.983-3.983,3.983-10.441,0-14.425l-22.311-22.311c-3.983-3.982-10.441-3.982-14.425,0
			c-3.983,3.983-3.983,10.441,0,14.425l3.943,3.943l-12.552,12.552c-36.273-29.575-80.653-46.556-127.731-48.703v-6.188
			c14.354-4.378,24.828-17.742,24.828-33.508C291.027,15.713,275.314,0,256,0c-19.314,0-35.027,15.713-35.027,35.027
			c0,15.768,10.474,29.131,24.828,33.508v6.188c-54.602,2.49-105.581,24.929-144.486,63.833
			c-41.318,41.318-64.072,96.253-64.072,154.685s22.755,113.367,64.072,154.685C142.632,489.245,197.568,512,256,512
			s113.367-22.755,154.685-64.072c41.318-41.317,64.072-96.253,64.072-154.685C474.758,234.81,452.002,179.875,410.685,138.558z
			 M241.371,35.027c0-8.065,6.562-14.629,14.629-14.629c8.067,0,14.629,6.563,14.629,14.629c0,4.101-1.702,7.809-4.43,10.467v-1.529
			c0-5.633-4.566-10.199-10.199-10.199c-5.633,0-10.199,4.566-10.199,10.199v1.529C243.072,42.836,241.371,39.129,241.371,35.027z
			 M256,491.602c-109.375,0-198.359-88.984-198.359-198.359S146.625,94.883,256,94.883s198.359,88.984,198.359,198.359
			S365.375,491.602,256,491.602z"/>
	</g>
</g>
<g>
	<g>
		<path d="M256,108.595c-101.815,0-184.647,82.833-184.647,184.647S154.185,477.89,256,477.89s184.647-82.833,184.647-184.647
			S357.815,108.595,256,108.595z M256,457.491c-90.567,0-164.249-73.682-164.249-164.249S165.433,128.993,256,128.993
			s164.249,73.682,164.249,164.249S346.567,457.491,256,457.491z"/>
	</g>
</g>
<g>
	<g>
		<path d="M266.199,268.091v-81.292c0-5.633-4.566-10.199-10.199-10.199c-5.633,0-10.199,4.566-10.199,10.199v81.292
			c-9.928,4.041-16.948,13.789-16.948,25.151c0,14.968,12.178,27.147,27.147,27.147c14.969,0,27.147-12.178,27.147-27.147
			C283.147,281.88,276.127,272.132,266.199,268.091z M256,299.991c-3.721,0-6.749-3.027-6.749-6.749
			c0-3.722,3.027-6.749,6.749-6.749c3.722,0,6.749,3.027,6.749,6.749C262.749,296.964,259.721,299.991,256,299.991z"/>
	</g>
</g>
<g>
</g>
<g>
</g>
<g>
</g>
<g>
</g>
<g>
</g>
<g>
</g>
<g>
</g>
<g>
</g>
<g>
</g>
<g>
</g>
<g>
</g>
<g>
</g>
<g>
</g>
<g>
</g>
<g>
</g>
</svg>
